<svg xmlns:xlink="http://www.w3.org/1999/xlink" xmlns="http://www.w3.org/2000/svg" viewBox="0 0 434.33 443.61" id="1683361167" class="svg u_1683361167" data-icon-custom="true" data-icon-name="holding_sprout.svg" width="434.33"  height="443.61" > <title id="1933159350">holding_sprout</title> 
 <g id="Layer_2" data-name="Layer 2" fill="#40B572"> <g id="Layer_1-2" data-name="Layer 1" fill="#40B572"> <path d="M383.53,88.68H324.69a54.74,54.74,0,0,0-35,12.6V71.22A71.3,71.3,0,0,0,218.48,0H151.76a10,10,0,0,0-10,10V37.46A71.3,71.3,0,0,0,213,108.68H269.7V210.05c-2.64-.17-5.29-.26-8-.26a123.45,123.45,0,0,0-72.66,23.43,10,10,0,0,0,11.7,16.22A104.13,104.13,0,0,1,277.52,231a10.16,10.16,0,0,0,1.32.2,104.51,104.51,0,0,1,74.23,52.43,10,10,0,1,0,17.49-9.69,124.52,124.52,0,0,0-80.86-61V180.65h48.84a55.06,55.06,0,0,0,55-55v-27A10,10,0,0,0,383.53,88.68Zm-113.83,0H213a51.28,51.28,0,0,1-51.22-51.22V20h56.72A51.28,51.28,0,0,1,269.7,71.22V88.68Zm103.83,37a35,35,0,0,1-35,35H289.7v-17a35,35,0,0,1,35-35h48.84Z" id="1774398365" fill="#40B572"></path> 
 <path d="M431,324.54a39.24,39.24,0,0,0-51.68-20l-.15.07-65.34,30.13a10,10,0,0,0,8.38,18.16l65.26-30.09a19.19,19.19,0,0,1,15.43,35.14L269.18,417a77.5,77.5,0,0,1-66-1.49l-48.94-24.32a97.46,97.46,0,0,0-83-1.88l-1,.43L33.77,306.85l50.78-22.42a101,101,0,0,1,76-2.43L259,318.14a17.74,17.74,0,0,1-11.8,33.46l-76.11-25.74a10,10,0,1,0-6.41,18.95l76.11,25.74A37.74,37.74,0,0,0,288.58,347a38,38,0,0,0-22.7-47.64l-98.42-36.14a121,121,0,0,0-91,2.9L25.37,288.7a25.14,25.14,0,0,0-12-9.78A25.2,25.2,0,0,0,0,277.54L69.1,435.12a25.31,25.31,0,0,0,9.1-27l1.19-.53a77.51,77.51,0,0,1,66,1.5l48.94,24.32a97.45,97.45,0,0,0,83,1.88l133.71-59A39.24,39.24,0,0,0,431,324.54Z" id="1522558957" fill="#40B572"></path> 
</g> 
</g> 
</svg>