<svg version="1.1" id="1406049481" xmlns="http://www.w3.org/2000/svg" xmlns:xlink="http://www.w3.org/1999/xlink" x="0px" y="0px" viewBox="0 0 512 512" style="enable-background:new 0 0 512 512;" xml:space="preserve" class="svg u_1406049481" data-icon-custom="true" data-icon-name="leafs_sprout.svg" width="512"  height="512" > <g id="1933220780" fill="#40B572"> <g id="1916260321" fill="#40B572"> <path d="M508.5,439.3c-20.7-51-68.5-86.4-122.9-91.5c-12-22-29.5-40.6-50.7-54.1c-20.7-13.1-44.2-20.8-68.7-22.5v-56.2h40.5
			c81.2,0,114.7-35.9,114.7-117.2V47.3c0-5.6-4.6-10.2-10.2-10.2h-50.7c-62.2,0-83,8.6-104.5,63.3C234.4,45.8,181.1,7,118.9,7H68.2
			C62.6,7,58,11.5,58,17.2v50.7c0,81.2,66.1,147.3,147.3,147.3h40.5v56.2c-24.4,1.7-48,9.4-68.7,22.5
			c-21.3,13.5-38.7,32.1-50.7,54.1C72,353,24.2,388.4,3.5,439.3c-5.9,14.6-4.2,31.2,4.7,44.4c9,13.3,23.9,21.3,39.9,21.3h415.8
			c16,0,31-8,39.9-21.3C512.7,470.6,514.5,454,508.5,439.3z M266.2,154.3c0-70,24.3-96.8,94.3-96.8H401V98c0,70-24.3,96.8-94.3,96.8
			h-26.1l61.4-61.3c4-4,4-10.4,0-14.4c-4-4-10.4-4-14.4,0l-61.4,61.3L266.2,154.3L266.2,154.3z M120.2,83.6l111.2,111.2h-26.1
			c-70,0-126.9-56.9-126.9-126.9V27.4h40.5c70,0,126.9,56.9,126.9,126.9v26.1L134.6,69.2c-4-4-10.4-4-14.4,0
			C116.2,73.1,116.2,79.6,120.2,83.6z M486.9,472.3c-5.3,7.8-13.6,12.3-23,12.3H48.1c-9.4,0-17.8-4.5-23-12.3
			c-5.1-7.6-6.1-16.9-2.7-25.3c18.5-45.5,62-76.6,111-79.2c3.7-0.2,7-2.4,8.6-5.6c21.7-43.6,65.4-70.7,114-70.7
			c43,0,82.1,21.2,105.6,56.2c-10.6,0.7-21,2.6-31.2,5.5c-5.4,1.6-8.5,7.2-6.9,12.6c1.3,4.5,5.4,7.4,9.8,7.4c0.9,0,1.9-0.1,2.9-0.4
			c11.5-3.3,23.5-5,35.6-5l7,0.2c49,2.6,92.5,33.7,111,79.2C493.1,455.5,492.1,464.7,486.9,472.3z" id="1729181281" fill="#40B572"></path> 
</g> 
</g> 
</svg>