<svg version="1.1" id="1348466310" xmlns="http://www.w3.org/2000/svg" xmlns:xlink="http://www.w3.org/1999/xlink" x="0px" y="0px" viewBox="0 0 401.887 401.887" style="enable-background:new 0 0 401.887 401.887;" xml:space="preserve" class="svg u_1348466310" data-icon-custom="true" data-icon-name="plant_pot.svg" width="401.887"  height="401.887" > <g id="1783013794" fill="#40B572"> <g id="1807096439" fill="#40B572"> <path d="M296.98,187.886h-88c-1.438-24.794,3.376-49.552,14-72c12.299,11.027,27.922,17.642,44.4,18.8
			c60.8,0,70.8-120.48,71.2-125.6c0.182-4.36-3.164-8.062-7.52-8.32c-69.6-3.76-113.12,6.4-130.08,30.32
			c-16.96-24-60.48-34.08-130.08-30.32c-4.261,0.213-7.605,3.733-7.6,8c0.4,5.12,10.4,125.6,71.2,125.6
			c17.145-1.277,33.342-8.36,45.92-20.08c9.157,13.961,13.717,30.437,13.04,47.12c-0.732,8.807-0.893,17.652-0.48,26.48h-88
			c-7.909,0-14.32,6.411-14.32,14.32v32.48c0.131,7.815,6.504,14.081,14.32,14.08h2.88l12.32,138.8c0,7.909,6.411,14.32,14.32,14.32
			h132.96c7.654,0.091,13.98-5.949,14.24-13.6l12.48-139.52h2.8c7.909,0,14.32-6.411,14.32-14.32v-32.32
			C311.256,194.248,304.858,187.886,296.98,187.886z M211.54,44.046c9.68-20.64,48-30.48,110.32-28
			c-4.08,34.8-19.2,102.64-54.48,102.64c-10.64,0-22.96-5.84-36.8-17.28c5.84-10.72,20.72-34.32,40-39.28
			c4.286-1.105,6.865-5.474,5.76-9.76c-1.105-4.286-5.474-6.865-9.76-5.76c-22.08,5.68-38.4,27.68-46.88,41.6
			C212.98,77.086,204.66,58.766,211.54,44.046z M126.42,46.686h-0.08c-4.242-1.236-8.683,1.201-9.918,5.443
			c-1.235,4.24,1.199,8.679,5.438,9.917c19.76,5.76,40,29.12,48.56,40c-9.769,9.344-22.387,15.147-35.84,16.48
			c-35.2,0-50.4-67.84-54.48-102.64c62.56-2.4,100.64,7.36,110.32,28c7.28,15.52-2.4,34.96-9.28,45.84
			C170.58,76.766,149.14,53.326,126.42,46.686z M191.7,102.846c3.513-5.079,6.616-10.429,9.28-16
			c2.805,5.84,6.097,11.433,9.84,16.72c-3.36,5.806-6.173,11.912-8.4,18.24C199.786,114.999,196.174,108.612,191.7,102.846z
			 M265.86,385.886H136.02l-12.24-137.12h154.4L265.86,385.886z M295.38,232.766h-188.8v-28.88h188.8V232.766z" id="1933853996" fill="#40B572"></path> 
</g> 
</g> 
 <g id="1785998264" fill="#40B572"></g> 
 <g id="1007043167" fill="#40B572"></g> 
 <g id="1526436929" fill="#40B572"></g> 
 <g id="1028986615" fill="#40B572"></g> 
 <g id="1230577536" fill="#40B572"></g> 
 <g id="1020795104" fill="#40B572"></g> 
 <g id="1181389451" fill="#40B572"></g> 
 <g id="1583928120" fill="#40B572"></g> 
 <g id="1667446490" fill="#40B572"></g> 
 <g id="1766367439" fill="#40B572"></g> 
 <g id="1427749035" fill="#40B572"></g> 
 <g id="1472716976" fill="#40B572"></g> 
 <g id="1209014120" fill="#40B572"></g> 
 <g id="1401994676" fill="#40B572"></g> 
 <g id="1659309629" fill="#40B572"></g> 
</svg>